<?xml version="1.0" encoding="iso-8859-1"?>
<!-- Generator: Adobe Illustrator 25.1.0, SVG Export Plug-In . SVG Version: 6.00 Build 0)  -->
<svg version="1.1" id="Layer_1" xmlns="http://www.w3.org/2000/svg" xmlns:xlink="http://www.w3.org/1999/xlink" x="0px" y="0px"
	 width="645.143px" height="196.469px" viewBox="0 0 645.143 196.469" enable-background="new 0 0 645.143 196.469"
	 xml:space="preserve">
<path d="M523.883,54.821C523.883,21.445,502.891,0,479.785,0c-23.257,0-44.249,21.596-44.098,54.821
	c0,33.376,20.992,54.821,44.098,54.821C503.042,109.642,523.883,88.197,523.883,54.821z M479.785,107.98
	c-17.065,0-25.221-13.441-25.221-53.008c0-39.719,8.306-53.16,25.221-53.16c17.216,0,25.221,13.441,25.221,53.16
	C505.005,94.539,496.699,107.98,479.785,107.98z M409.711,107.376h-74v-1.661h9.061V4.078h-9.061V2.416h41.078v1.661h-15.404
	l0.151,101.637h22.653c10.118,0,12.988-3.474,22.2-40.474h3.323V107.376z M267.6,0c-23.106,0-43.947,21.596-44.098,54.821
	c0,33.376,20.992,54.821,44.098,54.821c23.257,0,44.098-21.445,44.098-54.821S290.706,0,267.6,0z M267.6,107.98
	c-16.914,0-25.07-13.441-25.221-53.008c0-39.719,8.306-53.16,25.221-53.16c17.216,0,25.221,13.441,25.221,53.16
	C292.82,94.539,284.514,107.98,267.6,107.98z M165.509,55.727c24.919,0,37.302-10.118,37.302-25.976S189.673,2.416,165.358,2.416
	h-43.947v1.661h9.212v101.486h-9.212v1.661v0h39.87v-1.661h-14.196V55.727H165.509z M147.236,4.078h15.706
	c15.857,0,22.502,10.874,22.502,25.221c0,18.274-7.249,24.919-23.861,24.919h-14.347V4.078z"/>
<path d="M24.725,172.33c8.694-1.234,13.614-5.663,13.614-12.398c0-3.675-1.662-12.223-17.055-12.223H0v4.51h4.078v38.531H0v4.51
	h19.763v-4.51h-5.286v-15.615l15.429,20.125h13.114v-4.51h-4.085L24.725,172.33z M14.478,168.55v-16.331h4.692
	c7.642,0,8.467,5.394,8.467,7.712c0,5.719-3.56,8.619-10.582,8.619H14.478z M188.767,147.709h-21.133v4.51h4.078v38.531h-4.078v4.51
	h20.82v-4.51h-6.343v-17.237h6.655c16.348,0,18.112-8.97,18.112-12.827C206.879,152.682,199.938,147.709,188.767,147.709z
	 M187.105,169.154h-4.982l0.128-16.935h5.458c5.719,0,8.618,2.9,8.618,8.619C196.328,167.211,194.173,169.154,187.105,169.154z
	 M262.304,152.219v38.531h4.078v4.51h-19.008v-4.51h4.53v-17.992h-14.971v17.992h4.379v4.51h-19.008v-4.51h4.229v-38.531h-4.229
	v-4.51h19.008v4.51h-4.379v16.331h14.971v-16.331h-4.53v-4.51h19.008v4.51H262.304z M145.018,174.289h4.322v20.82h-35.923v-4.51
	h4.078v-38.38h-4.078v-4.51h21.123v4.51h-6.801l-0.141,38.531h8.613c3.482,0,4.533,0,8.516-15.338L145.018,174.289z M80.195,147.256
	h-6.5L57.838,190.75h-4.377v4.51h15.233v-4.51h-6.015l4.816-13.461h12.367l4.569,13.461h-4.391v4.51h18.253v-4.51h-3.148
	L80.195,147.256z M69.334,172.93l4.64-12.786l4.537,12.786H69.334z"/>
<path d="M645.143,147.709v4.51h-4.53v43.041h-4.746l-24.1-38.365v33.855h5.739v4.51h-15.082v-4.51h4.53v-38.531h-4.53v-4.51h15.474
	l17.751,28.644v-24.133h-5.437v-4.51H645.143z M580.587,176.874c-3.925,13.285-5.158,13.876-8.831,13.876h-10.582v-17.841h3.786
	c2.083,0,3.461,0.52,5.028,7.729l0.257,1.181h4.219v-22.18h-4.219l-0.257,1.181c-1.567,7.209-2.945,7.729-5.028,7.729h-3.786
	v-16.331h11.941c2.103,0,2.89,0,6.573,11.784l0.329,1.053h4.113v-17.347h-37.735v4.51h4.078v38.531h-4.078v4.51l38.792,0v-19.461
	h-4.282L580.587,176.874z M529.453,190.75h4.236v4.51h-13.114l-15.429-20.125v15.615h5.135v4.51h-19.763v-4.51h4.078v-38.531h-4.078
	v-4.51h21.284c15.393,0,17.055,8.548,17.055,12.223c0,6.735-4.92,11.164-13.614,12.398L529.453,190.75z M507.572,168.55
	c7.021,0,10.582-2.9,10.582-8.619c0-2.319-0.825-7.712-8.468-7.712h-4.68l0.127,16.331H507.572z M459.256,152.371h6.494v30.214
	c0,5.603-3.798,9.223-9.676,9.223c-2.273,0-7.562-0.854-7.562-8.77v-30.819h4.833v-4.524l-19.461,0.179v4.497h4.078v29.308
	c0,9.952,5.776,14.79,17.659,14.79c8.846,0,14.79-5.519,14.79-13.733v-30.365h4.078v-4.51h-15.233V152.371z M416.52,190.75h3.299
	v4.51h-18.102v-4.51h4.391l-4.569-13.461h-12.367l-4.817,13.461h5.864v4.51h-15.535v-4.51h4.528l15.857-43.494h6.5L416.52,190.75z
	 M400.036,172.93l-4.537-12.786l-4.64,12.786H400.036z M357.063,175.412c-3.982,15.338-5.125,15.338-8.516,15.338h-8.618v-38.531
	h6.947v-4.51h-21.123v4.51h4.078v38.38h-4.078v4.51h35.923v-20.82h-4.321L357.063,175.412z"/>
<g>
</g>
<g>
</g>
<g>
</g>
<g>
</g>
<g>
</g>
</svg>
