<?xml version="1.0" ?><svg xmlns="http://www.w3.org/2000/svg" width="64" height="64" viewBox="0 0 64 64" fill="none"><path d="M8 52C8 52 14.5 57.5 23.5 57.5C28.5 57.5 31.25 55.11 37.5 52.5C41.36 50.89 47.64 50.17 56 52C56 52 53.61 43.01 50.5 37.5C47.19 31.65 43.21 27.76 40.5 25.5C41.3 23.81 42.34 21.04 42.5 17.5C42.6 15.3 42.32 13.42 42 12C42 12 35 12 32 17C29 12 22 12 22 12C21.68 13.42 21.4 15.3 21.5 17.5C21.66 21.04 22.7 23.81 23.5 25.5C20.79 27.76 16.81 31.65 13.5 37.5C10.39 43.01 8 52 8 52Z" fill="#DE1C85"/><path d="M46.1101 31.15C44.0701 28.69 42.0701 26.82 40.5001 25.51C40.5001 25.51 34.5001 27.51 32.0001 27.51C29.5001 27.51 23.5001 25.51 23.5001 25.51C21.7201 26.99 19.4001 29.19 17.0801 32.17C19.0201 32.77 22.1801 33.51 25.9801 33.51C29.5201 33.51 31.4701 32.6 35.9001 31.61C38.1701 31.1 41.6301 30.84 46.1101 31.15Z" fill="white"/><g opacity="0.3"><path d="M21.5801 29.2L22.8601 28.13L24.4501 28.66C26.7501 29.43 30.6201 30.51 32.0001 30.51C33.3801 30.51 37.2501 29.43 39.5501 28.66L41.1401 28.13L42.4201 29.2C43.1301 29.79 43.8101 30.41 44.4901 31.06C45.0101 31.08 45.5501 31.11 46.1001 31.15C44.0601 28.69 42.0601 26.82 40.4901 25.51C40.4901 25.51 34.4901 27.51 31.9901 27.51C29.4901 27.51 23.4901 25.51 23.4901 25.51C21.7101 26.99 19.3901 29.19 17.0701 32.17C17.3701 32.26 17.7201 32.36 18.0801 32.46C19.1901 31.31 20.3601 30.22 21.5701 29.21L21.5801 29.2Z" fill="#2E1051"/></g><g opacity="0.3"><path d="M21 22.5C21 22.5 28.76 24.5 32 24.5C35.24 24.5 43 22.5 43 22.5L40.5 25.5C40.5 25.5 34.5 27.5 32 27.5C29.5 27.5 23.5 25.5 23.5 25.5L21 22.5Z" fill="#2E1051"/></g><g opacity="0.3"><path d="M41.4 23.2801C41.93 21.7201 42.4 19.7701 42.5 17.5001C42.54 16.6501 42.5 15.8601 42.45 15.1201C42.21 18.3601 41.25 20.9201 40.5 22.5001C40.78 22.7401 41.09 23.0001 41.4 23.2801Z" fill="#2E1051"/><path d="M22.6 23.2801C22.91 23.0101 23.22 22.7401 23.5 22.5001C22.75 20.9101 21.79 18.3601 21.55 15.1201C21.5 15.8701 21.47 16.6501 21.5 17.5001C21.6 19.7701 22.07 21.7201 22.6 23.2801Z" fill="#2E1051"/><path d="M37.5 49.5002C31.25 52.1102 28.5 54.5002 23.5 54.5002C16.25 54.5002 10.62 50.9302 8.71 49.5402C8.26 51.0302 8 52.0002 8 52.0002C8 52.0002 14.5 57.5002 23.5 57.5002C28.5 57.5002 31.25 55.1102 37.5 52.5002C41.36 50.8902 47.64 50.1702 56 52.0002C56 52.0002 55.66 50.7102 55.06 48.8102C47.17 47.2402 41.21 47.9502 37.5 49.5002Z" fill="#2E1051"/></g><path d="M24.5 35.4999C23.95 35.4999 23.5 35.0499 23.5 34.4999C23.5 30.2299 26.19 26.3499 26.3 26.1899C26.62 25.7399 27.24 25.6299 27.69 25.9499C28.14 26.2699 28.25 26.8899 27.94 27.3399C27.92 27.3699 25.5 30.8799 25.5 34.4999C25.5 35.0499 25.05 35.4999 24.5 35.4999Z" fill="#2E1051"/><path d="M39.12 35.4999C38.57 35.4999 38.12 35.0499 38.12 34.4999C38.12 30.8799 35.7 27.3699 35.68 27.3399C35.36 26.8899 35.47 26.2599 35.93 25.9499C36.38 25.6299 37 25.7399 37.32 26.1899C37.43 26.3499 40.12 30.2299 40.12 34.4999C40.12 35.0499 39.67 35.4999 39.12 35.4999Z" fill="#2E1051"/><path d="M42.3499 18.1499C39.7099 19.1599 34.5599 20.9999 31.9999 20.9999C29.4399 20.9999 24.2899 19.1599 21.6499 18.1499C21.8099 19.4599 22.0899 20.6299 22.4099 21.6599C24.1899 22.1299 29.5299 23.4999 32.0099 23.4999C34.4899 23.4999 39.8199 22.1399 41.6099 21.6599C41.9299 20.6299 42.1999 19.4599 42.3699 18.1499H42.3499Z" fill="white"/><path d="M56 51.9999C47.64 50.1699 41.36 50.8899 37.5 52.4999C35.32 53.4099 33.57 54.2899 32 55.0499C34.94 56.4799 37.24 57.4999 40.5 57.4999C49.5 57.4999 56 51.9999 56 51.9999Z" fill="#592C87"/><g opacity="0.3"><path d="M37.5 55.4999C40.78 54.1299 45.82 53.4099 52.39 54.3499C54.67 53.1199 56 51.9999 56 51.9999C47.64 50.1699 41.36 50.8899 37.5 52.4999C35.32 53.4099 33.57 54.2899 32 55.0499C33.15 55.6099 34.2 56.0999 35.24 56.4899C35.95 56.1599 36.68 55.8299 37.5 55.4899V55.4999Z" fill="#2E1051"/></g><path d="M10.0601 45.4501C12.6601 47.0801 17.5201 49.5001 23.5001 49.5001C28.5001 49.5001 31.2501 47.1101 37.5001 44.5001C40.9201 43.0701 46.2401 42.3501 53.2201 43.4701C52.4201 41.3901 51.5001 39.2701 50.5001 37.5001C50.4501 37.4201 50.4101 37.3501 50.3601 37.2701C44.5101 36.6801 39.9901 37.1601 37.0401 38.0801C31.3101 39.8601 28.7901 41.5001 24.2101 41.5001C19.2801 41.5001 15.1901 40.1601 12.6801 39.0801C11.6901 41.1001 10.7901 43.3701 10.0601 45.4501Z" fill="white"/><path d="M40.5 58.4999C37.06 58.4999 34.63 57.4399 31.56 55.9499C31.22 55.7799 31 55.4299 31 55.0499C31 54.6699 31.22 54.3199 31.56 54.1499L32.24 53.8199C33.63 53.1399 35.22 52.3599 37.11 51.5699C39.89 50.4099 46.06 48.7999 56.21 51.0199C56.58 51.0999 56.88 51.3899 56.97 51.7599C57.06 52.1299 56.94 52.5199 56.64 52.7599C56.36 52.9899 49.75 58.4999 40.49 58.4999H40.5ZM34.32 55.0399C36.37 55.9499 38.17 56.4999 40.5 56.4999C46.28 56.4999 51.04 54.0899 53.51 52.5299C45.26 51.1099 40.23 52.4399 37.88 53.4199C36.55 53.9699 35.38 54.5199 34.31 55.0399H34.32Z" fill="#2E1051"/><path d="M22.0001 13.0001C21.9001 13.0001 21.7901 12.9801 21.6801 12.9501C21.1601 12.7801 20.8701 12.2101 21.0501 11.6801L23.0501 5.68011C23.2201 5.16011 23.7901 4.87011 24.3201 5.05011C24.8401 5.22011 25.1301 5.79011 24.9501 6.32011L22.9501 12.3201C22.8101 12.7401 22.4201 13.0001 22.0001 13.0001Z" fill="#2E1051"/><path d="M41.9999 13.0001C41.5799 13.0001 41.1899 12.7301 41.0499 12.3201L39.0499 6.32011C38.8799 5.80011 39.1599 5.23011 39.6799 5.05011C40.2099 4.87011 40.7699 5.16011 40.9499 5.68011L42.9499 11.6801C43.1199 12.2001 42.8399 12.7701 42.3199 12.9501C42.2199 12.9901 42.1099 13.0001 41.9999 13.0001Z" fill="#2E1051"/><path d="M32.0001 28.5001C29.3701 28.5001 23.4401 26.5301 23.1801 26.4501C22.6601 26.2801 22.3701 25.7101 22.5501 25.1801C22.7201 24.6601 23.2901 24.3701 23.8201 24.5501C25.4501 25.0901 30.0901 26.5001 32.0001 26.5001C33.9101 26.5001 38.5601 25.0901 40.1801 24.5501C40.7101 24.3801 41.2701 24.6601 41.4501 25.1801C41.6201 25.7001 41.3401 26.2701 40.8201 26.4501C40.5701 26.5301 34.6401 28.5001 32.0001 28.5001Z" fill="#2E1051"/><path d="M23.4999 58.5C14.2399 58.5 7.62995 53 7.34995 52.76C7.05995 52.51 6.92995 52.11 7.02995 51.74C7.12995 51.37 9.47995 42.56 12.6299 37C15.1499 32.53 18.3999 28.57 22.2799 25.22C21.2199 22.77 20.6199 20.18 20.4999 17.54C20.4099 15.61 20.5899 13.67 21.0199 11.77C21.1199 11.32 21.5299 10.99 21.9999 10.99C22.2799 10.99 28.4799 11.04 31.9999 15.27C35.5199 11.04 41.7199 10.99 41.9999 10.99C42.4699 10.99 42.8699 11.31 42.9799 11.77C43.4099 13.67 43.5899 15.61 43.4999 17.54C43.3799 20.19 42.7899 22.77 41.7199 25.22C45.5999 28.57 48.8399 32.54 51.3699 37C54.5099 42.56 56.8699 51.36 56.9699 51.74C57.0599 52.08 56.9699 52.44 56.7299 52.69C56.4899 52.94 56.1299 53.05 55.7899 52.98C46.1799 50.88 40.4499 52.36 37.8899 53.43C36.0399 54.2 34.4899 54.96 33.1099 55.63C29.8299 57.24 27.2399 58.5 23.4999 58.5ZM9.13995 51.62C10.7899 52.83 16.3599 56.5 23.4999 56.5C26.7699 56.5 29.0599 55.38 32.2299 53.83C33.6299 53.15 35.2199 52.37 37.1199 51.58C39.7499 50.48 45.4099 48.98 54.5999 50.7C53.7799 47.91 51.8899 41.97 49.6399 38C47.1099 33.52 43.8199 29.58 39.8699 26.28C39.5199 25.99 39.4099 25.5 39.6099 25.08C40.7599 22.66 41.3999 20.1 41.5099 17.46C41.5699 15.99 41.4699 14.51 41.1999 13.06C39.3799 13.24 34.9599 14.03 32.8599 17.52C32.4999 18.12 31.5099 18.12 31.1499 17.52C29.0499 14.02 24.6299 13.23 22.8099 13.06C22.5399 14.52 22.4399 15.99 22.4999 17.46C22.6199 20.09 23.2599 22.66 24.3999 25.08C24.5999 25.49 24.4899 25.98 24.1399 26.28C20.1899 29.58 16.8999 33.53 14.3699 38C11.8299 42.5 9.74995 49.5 9.13995 51.63V51.62Z" fill="#2E1051"/></svg>