<?xml version="1.0" ?><svg xmlns="http://www.w3.org/2000/svg" width="64" height="64" viewBox="0 0 64 64" fill="none"><path d="M5.99997 33.2846C5.92997 33.2846 5.86997 33.2846 5.79997 33.2646C5.25997 33.1546 4.90997 32.6246 5.01997 32.0846C5.92997 27.5646 8.12997 21.3646 13.41 17.4746C15.11 16.2246 17.95 14.1346 20.45 15.3846C22.43 16.3746 23.43 19.1346 22.99 22.4046C22.92 22.9546 22.41 23.3346 21.87 23.2646C21.32 23.1946 20.94 22.6946 21.01 22.1446C21.32 19.7946 20.72 17.7546 19.55 17.1646C18.14 16.4546 15.92 18.0946 14.59 19.0746C9.82997 22.5846 7.81997 28.2946 6.97997 32.4646C6.87997 32.9346 6.46997 33.2646 5.99997 33.2646V33.2846Z" fill="#2E1051"/><path d="M58.0901 33.2847C57.6201 33.2847 57.2101 32.9547 57.1101 32.4847C56.2701 28.3147 54.2601 22.5947 49.5001 19.0947C48.1701 18.1147 45.9501 16.4747 44.5401 17.1847C43.3701 17.7647 42.7801 19.8147 43.0801 22.1647C43.1501 22.7147 42.7701 23.2147 42.2201 23.2847C41.6801 23.3547 41.1701 22.9747 41.1001 22.4247C40.6701 19.1447 41.6701 16.3847 43.6401 15.4047C46.1401 14.1547 48.9801 16.2447 50.6801 17.4947C55.9601 21.3747 58.1501 27.5847 59.0701 32.1047C59.1801 32.6447 58.8301 33.1747 58.2901 33.2847C58.2201 33.2947 58.1601 33.3047 58.0901 33.3047V33.2847Z" fill="#2E1051"/><path d="M35.14 38.3647C36.36 39.9147 37.54 45.1447 40.57 46.8047C46.02 49.7847 52.51 46.2847 52.98 46.0247C59.73 42.2547 61.87 32.8747 58.3 29.7047C54.94 26.7247 44.13 27.1347 36.15 35.1447C35.16 36.1447 28.87 36.1447 27.88 35.1447C19.88 27.1347 9.06998 26.7347 5.70998 29.7047C2.13998 32.8747 4.27998 42.2547 11.03 46.0247C11.5 46.2847 17.98 49.7847 23.44 46.8047C26.47 45.1447 27.65 39.9147 28.87 38.3647C29.86 37.0947 34.15 37.0947 35.14 38.3647Z" fill="#DE1C85"/><g opacity="0.3"><path d="M7.71009 31.7047C11.0701 28.7247 21.8801 29.1347 29.8601 37.1447C30.0101 37.2947 30.3001 37.4247 30.6601 37.5247C31.9401 37.2947 33.5301 37.4147 34.4901 37.8847C36.1401 37.8447 37.6801 37.5947 38.1401 37.1447C45.4601 29.7947 55.1601 28.8547 59.3001 31.0447C59.0401 30.5247 58.7101 30.0647 58.2901 29.6947C54.9301 26.7147 44.1201 27.1247 36.1401 35.1347C35.1501 36.1347 28.8601 36.1347 27.8701 35.1347C19.8801 27.1347 9.07009 26.7347 5.71009 29.7047C2.48009 32.5647 3.93009 40.4847 9.21009 44.7747C5.62009 40.3547 4.94009 34.1647 7.71009 31.7047Z" fill="white"/><path d="M37.1401 40.3648C36.8901 40.0448 36.4301 39.8048 35.8701 39.6448C36.8701 41.7748 38.0801 45.2848 40.4001 46.6948C38.8701 44.4748 38.0101 41.4748 37.1401 40.3648Z" fill="white"/></g><path d="M18.5 49.0146C14.49 49.0146 11.07 47.1946 10.54 46.9046C6.50001 44.6446 3.57001 40.2046 3.07001 35.5846C2.76001 32.7646 3.49001 30.3546 5.05001 28.9646C8.87001 25.5746 20.2 26.0346 28.58 34.4446C29.4 35.0446 34.62 35.0446 35.46 34.4246C43.81 26.0346 55.14 25.5746 58.96 28.9646C60.52 30.3546 61.24 32.7646 60.94 35.5846C60.44 40.2046 57.51 44.6546 53.47 46.9046C52.72 47.3246 45.97 50.8946 40.1 47.6846C37.76 46.4046 36.49 43.5146 35.48 41.2046C35.07 40.2746 34.69 39.3946 34.37 38.9846C34.19 38.7546 33.32 38.4146 32.02 38.4146C30.72 38.4146 29.85 38.7546 29.67 38.9846C29.35 39.3846 28.97 40.2646 28.56 41.2046C27.54 43.5246 26.28 46.4046 23.94 47.6846C22.15 48.6646 20.28 49.0146 18.52 49.0146H18.5ZM11.72 29.0246C9.30001 29.0246 7.38001 29.5746 6.38001 30.4546C5.31001 31.4046 4.83001 33.1946 5.06001 35.3646C5.39001 38.4046 7.28001 42.7846 11.52 45.1546C11.78 45.2946 17.94 48.6746 22.96 45.9246C24.71 44.9646 25.82 42.4346 26.71 40.3946C27.19 39.2946 27.61 38.3546 28.08 37.7446C28.46 37.2546 29.05 36.9446 29.65 36.7546C28.63 36.6146 27.65 36.3546 27.15 35.8546C22.18 30.8646 16.12 29.0246 11.71 29.0246H11.72ZM35.93 37.7446C36.4 38.3446 36.82 39.2946 37.3 40.3946C38.19 42.4346 39.31 44.9746 41.05 45.9246C46.07 48.6646 52.23 45.2946 52.49 45.1546C56.73 42.7846 58.62 38.3946 58.95 35.3646C59.19 33.1946 58.71 31.4046 57.63 30.4546C54.82 27.9646 44.54 28.1246 36.85 35.8546C36.35 36.3546 35.37 36.6146 34.35 36.7546C34.96 36.9546 35.54 37.2646 35.92 37.7446H35.93Z" fill="#2E1051"/><path d="M13 33.0046C11.4 33.0046 9 34.4746 9 38.8846C9 40.3546 10.04 45.9546 16 47.7046C21 49.1746 24.29 44.9446 25 41.8246C26 37.4146 21 33.0046 13 33.0046Z" fill="#2CCBD1"/><path d="M8 33.0046C8.55228 33.0046 9 32.5569 9 32.0046C9 31.4524 8.55228 31.0046 8 31.0046C7.44772 31.0046 7 31.4524 7 32.0046C7 32.5569 7.44772 33.0046 8 33.0046Z" fill="#2CCBD1"/><path d="M56 33.0046C56.5523 33.0046 57 32.5569 57 32.0046C57 31.4524 56.5523 31.0046 56 31.0046C55.4477 31.0046 55 31.4524 55 32.0046C55 32.5569 55.4477 33.0046 56 33.0046Z" fill="#2CCBD1"/><g opacity="0.3"><mask id="mask0_289_681" style="mask-type:luminance" maskUnits="userSpaceOnUse" x="9" y="33" width="17" height="16"><path d="M13 33.0046C11.4 33.0046 9 34.4746 9 38.8846C9 40.3546 10.04 45.9546 16 47.7046C21 49.1746 24.29 44.9446 25 41.8246C26 37.4146 21 33.0046 13 33.0046Z" fill="white"/></mask><g mask="url(#mask0_289_681)"><path d="M28 28.0046L6 50.0046H2L24 28.0046H28Z" fill="white"/><path d="M34 28.0046L12 50.0046H10L32 28.0046H34Z" fill="white"/></g></g><path d="M18 49.0046C17.25 49.0046 16.49 48.8946 15.71 48.6646C9.37999 46.8046 7.98999 40.9746 7.98999 38.8846C7.98999 33.4446 11.26 32.0046 12.99 32.0046C17.98 32.0046 22.3 33.6946 24.56 36.5146C25.89 38.1846 26.39 40.1446 25.96 42.0446C25.55 43.8746 24.18 46.5246 21.68 47.9946C20.54 48.6646 19.29 49.0046 17.99 49.0046H18ZM13 34.0046C11.96 34.0046 9.99999 35.0246 9.99999 38.8846C9.99999 40.4446 11.15 45.2346 16.28 46.7446C17.87 47.2146 19.35 47.0546 20.68 46.2646C22.5 45.1946 23.67 43.1546 24.02 41.5946C24.32 40.2846 23.96 38.9646 23 37.7546C21.12 35.3946 17.38 33.9946 12.99 33.9946L13 34.0046Z" fill="#2E1051"/><path d="M38.9998 41.8246C39.7098 44.9446 42.9998 49.1746 47.9998 47.7046C53.9598 45.9546 54.9998 40.3546 54.9998 38.8846C54.9998 34.4746 52.5998 33.0046 50.9998 33.0046C42.9998 33.0046 37.9998 37.4146 38.9998 41.8246Z" fill="#2CCBD1"/><g opacity="0.3"><mask id="mask1_289_681" style="mask-type:luminance" maskUnits="userSpaceOnUse" x="38" y="33" width="17" height="16"><path d="M38.9998 41.8246C39.7098 44.9446 42.9998 49.1746 47.9998 47.7046C53.9598 45.9546 54.9998 40.3546 54.9998 38.8846C54.9998 34.4746 52.5998 33.0046 50.9998 33.0046C42.9998 33.0046 37.9998 37.4146 38.9998 41.8246Z" fill="white"/></mask><g mask="url(#mask1_289_681)"><path d="M65.9998 28.0046L43.9998 50.0046H35.9998L57.9998 28.0046H65.9998Z" fill="white"/></g></g><path d="M46 49.0046C44.7 49.0046 43.45 48.6646 42.31 47.9946C39.81 46.5246 38.44 43.8746 38.03 42.0446C37.6 40.1546 38.1 38.1946 39.43 36.5146C41.69 33.6846 46.01 32.0046 51 32.0046C52.73 32.0046 56 33.4446 56 38.8846C56 40.9746 54.61 46.8046 48.28 48.6646C47.51 48.8946 46.74 49.0046 45.99 49.0046H46ZM51 34.0046C46.61 34.0046 42.87 35.4146 40.99 37.7646C40.03 38.9646 39.68 40.2946 39.97 41.6046C40.32 43.1546 41.49 45.2046 43.31 46.2746C44.64 47.0546 46.12 47.2146 47.71 46.7546C52.84 45.2446 53.99 40.4546 53.99 38.8946C53.99 35.0346 52.03 34.0146 50.99 34.0146L51 34.0046Z" fill="#2E1051"/></svg>